<svg width="28" height="28" viewBox="0 0 28 28" fill="none" xmlns="http://www.w3.org/2000/svg">
<path d="M0.504669 13.8643C0.504669 13.125 1.10402 12.5256 1.84335 12.5256H25.9397C26.679 12.5256 27.2784 13.125 27.2784 13.8643C27.2784 14.6036 26.679 15.203 25.9397 15.203H1.84335C1.10402 15.203 0.504669 14.6036 0.504669 13.8643Z" fill="#B2B2B2"/>
<path d="M13.8915 0.477417C14.6308 0.477417 15.2302 1.07677 15.2302 1.8161L15.2302 25.9124C15.2302 26.6518 14.6308 27.2511 13.8915 27.2511C13.1522 27.2511 12.5528 26.6518 12.5528 25.9124L12.5528 1.8161C12.5528 1.07677 13.1522 0.477417 13.8915 0.477417Z" fill="#B2B2B2"/>
</svg>
