<svg width="17" height="17" viewBox="0 0 17 17" fill="none" xmlns="http://www.w3.org/2000/svg">
<g id="Vector">
<path d="M1.26249 1.26254C1.66358 0.861441 2.31389 0.86144 2.71499 1.26254L15.7875 14.3351C16.1886 14.7362 16.1886 15.3865 15.7875 15.7876C15.3864 16.1887 14.7361 16.1887 14.335 15.7876L1.26249 2.71504C0.861388 2.31395 0.861388 1.66364 1.26249 1.26254Z" fill="white"/>
<path d="M15.7875 1.26252C16.1886 1.66362 16.1886 2.31393 15.7875 2.71503L2.71501 15.7876C2.31391 16.1887 1.6636 16.1887 1.2625 15.7876C0.861404 15.3865 0.861404 14.7362 1.2625 14.3351L14.335 1.26252C14.7361 0.861426 15.3864 0.861425 15.7875 1.26252Z" fill="white"/>
</g>
</svg>
