<svg width="12" height="12" viewBox="0 0 12 12" fill="none" xmlns="http://www.w3.org/2000/svg">
<path fill-rule="evenodd" clip-rule="evenodd" d="M10.0006 5.44028L5.44449 9.83168C4.53326 10.71 1.19211 12.1737 0.28096 11.2955C-0.630194 10.4172 0.88834 7.1968 1.79956 6.31852C1.79956 6.31852 4.53317 3.68362 6.35567 1.92712C6.37488 1.9086 6.39423 1.88993 6.41373 1.87112C6.55607 1.73383 6.70599 1.58923 6.8627 1.44375C6.86882 1.45042 6.87519 1.45694 6.8818 1.46332L10.4818 4.9332C10.4884 4.93958 10.4952 4.94571 10.5021 4.9516C10.3511 5.1027 10.201 5.24725 10.0585 5.38449C10.0391 5.40323 10.0197 5.42182 10.0006 5.44028ZM11.1028 4.30495L7.53361 0.864781C8.60546 0.0247183 9.89507 -0.51669 11.2156 0.756063C12.5361 2.02882 11.9744 3.27184 11.1028 4.30495Z" fill="white"/>
<path fill-rule="evenodd" clip-rule="evenodd" d="M6.75 11.5663C6.75 11.3267 6.95147 11.1325 7.2 11.1325H10.8C11.0485 11.1325 11.25 11.3267 11.25 11.5663C11.25 11.8058 11.0485 12 10.8 12H7.2C6.95147 12 6.75 11.8058 6.75 11.5663Z" fill="white"/>
</svg>
