<svg width="28" height="21" viewBox="0 0 28 21" fill="none" xmlns="http://www.w3.org/2000/svg">
<g id="Vector">
<path d="M26.519 9.06301C27.1603 9.90026 27.1603 11.0327 26.519 11.87C24.4997 14.5057 19.6553 19.933 14 19.933C8.34477 19.933 3.5003 14.5057 1.48104 11.87C0.839661 11.0327 0.839648 9.90026 1.48103 9.06301C3.5003 6.42729 8.34477 1 14 1C19.6553 1 24.4997 6.42729 26.519 9.06301Z" stroke="#f2f2f2" stroke-width="2" stroke-linecap="round" stroke-linejoin="round"/>
<path d="M13.9999 14.5235C16.2405 14.5235 18.0569 12.7071 18.0569 10.4664C18.0569 8.22576 16.2405 6.40935 13.9999 6.40935C11.7592 6.40935 9.94279 8.22576 9.94279 10.4664C9.94279 12.7071 11.7592 14.5235 13.9999 14.5235Z" stroke="#f2f2f2" stroke-width="2" stroke-linecap="round" stroke-linejoin="round"/>
</g>
</svg>
