<svg width="24" height="24" viewBox="0 0 24 24" fill="none" xmlns="http://www.w3.org/2000/svg">
<path d="M2.04657 11.0362C2.0998 10.4865 1.69732 9.99771 1.14761 9.94449C0.597895 9.89126 0.109114 10.2937 0.055885 10.8435L2.04657 11.0362ZM17.1339 21.7284L16.6672 20.844L17.1339 21.7284ZM22.3329 8.22761L21.3936 8.57056L22.3329 8.22761ZM2.36512 4.84678C2.0359 5.29021 2.12849 5.91657 2.57193 6.24579C3.01536 6.57501 3.64172 6.48242 3.97094 6.03899L2.36512 4.84678ZM2.74759 3.02914C2.74759 2.47686 2.29988 2.02914 1.74759 2.02914C1.19531 2.02914 0.747591 2.47686 0.747591 3.02914H2.74759ZM1.74759 6.767H0.747591C0.747591 7.31929 1.19531 7.767 1.74759 7.767V6.767ZM5.48545 7.767C6.03774 7.767 6.48545 7.31929 6.48545 6.767C6.48545 6.21472 6.03774 5.767 5.48545 5.767V7.767ZM12.1456 7.08739C12.1456 6.53511 11.6979 6.08739 11.1456 6.08739C10.5934 6.08739 10.1456 6.53511 10.1456 7.08739H12.1456ZM11.1456 13.6019H10.1456C10.1456 14.002 10.384 14.3635 10.7517 14.5211L11.1456 13.6019ZM15.2372 16.4434C15.7448 16.661 16.3327 16.4258 16.5502 15.9182C16.7678 15.4106 16.5326 14.8227 16.025 14.6051L15.2372 16.4434ZM0.055885 10.8435C-0.223782 13.7317 0.55257 16.6234 2.24119 18.9832L3.86766 17.8193C2.46048 15.8528 1.81352 13.4431 2.04657 11.0362L0.055885 10.8435ZM2.24119 18.9832C3.92981 21.343 6.4163 23.011 9.24026 23.6783L9.70022 21.7319C7.34692 21.1758 5.27484 19.7858 3.86766 17.8193L2.24119 18.9832ZM9.24026 23.6783C12.0642 24.3457 15.0343 23.9671 17.6006 22.6128L16.6672 20.844C14.5286 21.9726 12.0535 22.2881 9.70022 21.7319L9.24026 23.6783ZM17.6006 22.6128C20.167 21.2586 22.1556 19.0202 23.1984 16.3123L21.332 15.5936C20.463 17.8502 18.8058 19.7155 16.6672 20.844L17.6006 22.6128ZM23.1984 16.3123C24.2412 13.6044 24.2674 10.6104 23.2723 7.88466L21.3936 8.57056C22.2228 10.842 22.201 13.337 21.332 15.5936L23.1984 16.3123ZM23.2723 7.88466C22.2771 5.1589 20.328 2.88606 17.7858 1.48698L16.8215 3.23915C18.94 4.40505 20.5643 6.29909 21.3936 8.57056L23.2723 7.88466ZM17.7858 1.48698C15.2437 0.087896 12.2807 -0.342641 9.44543 0.275085L9.87119 2.22924C12.2339 1.71447 14.7031 2.07325 16.8215 3.23915L17.7858 1.48698ZM9.44543 0.275085C6.61021 0.89281 4.09485 2.51695 2.36512 4.84678L3.97094 6.03899C5.41238 4.09747 7.50851 2.74401 9.87119 2.22924L9.44543 0.275085ZM0.747591 3.02914V6.767H2.74759V3.02914H0.747591ZM1.74759 7.767H5.48545V5.767H1.74759V7.767ZM10.1456 7.08739V13.6019H12.1456V7.08739H10.1456ZM10.7517 14.5211L15.2372 16.4434L16.025 14.6051L11.5396 12.6828L10.7517 14.5211Z" fill="#1E1E1E"/>
</svg>
