<svg width="20" height="20" viewBox="0 0 20 20" fill="none" xmlns="http://www.w3.org/2000/svg">
<path id="Vector" d="M5.15639 7.26519C5.52225 6.89937 5.92811 6.59771 6.35981 6.35938C8.7658 5.03359 11.851 5.73857 13.3978 8.0835L11.526 9.95427C10.9893 8.73014 9.6567 8.0335 8.33077 8.33016C7.83157 8.44182 7.35737 8.69098 6.96985 9.07847L3.38294 12.6667C2.2937 13.7558 2.2937 15.5274 3.38294 16.6166C4.47218 17.7057 6.24396 17.7057 7.33321 16.6166L8.43911 15.5108C9.44501 15.9099 10.5234 16.0691 11.5885 15.9899L9.1475 18.4307C7.05485 20.5231 3.66212 20.5231 1.56948 18.4307C-0.52316 16.3382 -0.52316 12.9458 1.56948 10.8534L5.15639 7.26519ZM10.8534 1.5687L8.41245 4.00946C9.47668 3.92946 10.5559 4.08946 11.5618 4.48778L12.6669 3.38281C13.7561 2.29368 15.5279 2.29368 16.6172 3.38281C17.7064 4.47194 17.7064 6.24356 16.6172 7.33269L13.0294 10.9201C11.9369 12.0125 10.1626 12.0034 9.07916 10.9201C8.82664 10.6676 8.60913 10.3534 8.47328 10.0443L6.60149 11.915C6.79817 12.2134 7.00235 12.4709 7.26487 12.7334C7.94158 13.41 8.8033 13.9142 9.79504 14.1533C11.0801 14.4625 12.4569 14.2916 13.6395 13.6392C14.0712 13.4008 14.477 13.0992 14.8429 12.7334L18.4298 9.14596C20.5233 7.05353 20.5233 3.66114 18.4306 1.5687C16.338 -0.5229 12.9461 -0.5229 10.8534 1.5687Z" fill="#838383"/>
</svg>
