<svg width="23" height="27" viewBox="0 0 23 27" fill="none" xmlns="http://www.w3.org/2000/svg">
<path d="M11.5 13.0142C14.7288 13.0142 17.3462 10.3247 17.3462 7.0071C17.3462 3.68947 14.7288 1 11.5 1C8.27119 1 5.65375 3.68947 5.65375 7.0071C5.65375 10.3247 8.27119 13.0142 11.5 13.0142Z" stroke="#F2F2F2" stroke-width="2"/>
<path d="M17.3462 15.417H17.7574C19.5264 15.417 21.0186 16.7705 21.2381 18.5742L21.6947 22.3274C21.8691 23.7616 20.7808 25.0283 19.3742 25.0283H3.62577C2.21918 25.0283 1.13088 23.7616 1.30534 22.3274L1.76193 18.5742C1.98136 16.7705 3.47356 15.417 5.24259 15.417H5.65376" stroke="#F2F2F2" stroke-width="2" stroke-linecap="round" stroke-linejoin="round"/>
</svg>
