<svg width="20" height="20" viewBox="0 0 20 20" fill="none" xmlns="http://www.w3.org/2000/svg">
<path id="Vector" d="M9.997 19.995C15.515 19.995 19.995 15.515 19.995 9.997C19.995 4.479 15.515 0 9.997 0C4.48 0 0 4.479 0 9.997C0 15.515 4.48 19.995 9.997 19.995ZM9.997 18.495C5.307 18.495 1.5 14.687 1.5 9.997C1.5 5.307 5.307 1.5 9.997 1.5C14.687 1.5 18.495 5.307 18.495 9.997C18.495 14.687 14.687 18.495 9.997 18.495ZM9.997 11.995C9.583 11.995 9.247 11.659 9.247 11.245V5.745C9.247 5.331 9.583 4.995 9.997 4.995C10.411 4.995 10.747 5.331 10.747 5.745V11.245C10.747 11.659 10.411 11.995 9.997 11.995ZM9.995 14.995C10.547 14.995 10.995 14.547 10.995 13.995C10.995 13.443 10.547 12.995 9.995 12.995C9.443 12.995 8.995 13.443 8.995 13.995C8.995 14.547 9.443 14.995 9.995 14.995Z" fill="#838383"/>
</svg>
